<?xml version="1.0" encoding="UTF-8" standalone="no"?>
<svg
   xmlns:dc="http://purl.org/dc/elements/1.1/"
   xmlns:cc="http://creativecommons.org/ns#"
   xmlns:rdf="http://www.w3.org/1999/02/22-rdf-syntax-ns#"
   xmlns:svg="http://www.w3.org/2000/svg"
   xmlns="http://www.w3.org/2000/svg"
   xmlns:sodipodi="http://sodipodi.sourceforge.net/DTD/sodipodi-0.dtd"
   xmlns:inkscape="http://www.inkscape.org/namespaces/inkscape"
   inkscape:version="1.0 (4035a4fb49, 2020-05-01)"
   sodipodi:docname="ol.new.svg"
   id="svg8"
   version="1.1"
   viewBox="0 0 64 64"
   height="64mm"
   width="64mm">
  <defs
     id="defs2" />
  <sodipodi:namedview
     inkscape:window-maximized="1"
     inkscape:window-y="-8"
     inkscape:window-x="-8"
     inkscape:window-height="987"
     inkscape:window-width="1680"
     showgrid="false"
     inkscape:document-rotation="0"
     inkscape:current-layer="layer1"
     inkscape:document-units="mm"
     inkscape:cy="70.124046"
     inkscape:cx="115.4815"
     inkscape:zoom="1.979899"
     inkscape:pageshadow="2"
     inkscape:pageopacity="0.0"
     borderopacity="1.0"
     bordercolor="#666666"
     pagecolor="#ffffff"
     id="base" />
  <metadata
     id="metadata5">
    <rdf:RDF>
      <cc:Work
         rdf:about="">
        <dc:format>image/svg+xml</dc:format>
        <dc:type
           rdf:resource="http://purl.org/dc/dcmitype/StillImage" />
        <dc:title></dc:title>
      </cc:Work>
    </rdf:RDF>
  </metadata>
  <g
     id="layer1"
     inkscape:groupmode="layer"
     inkscape:label="Layer 1">
    <g
       style="font-size:14.3427px;line-height:1.25;font-family:'Bookman Old Style';-inkscape-font-specification:'Bookman Old Style';letter-spacing:0px;word-spacing:0px;stroke-width:0.358568"
       id="text903"
       aria-label="1. Item 1
2. Item 2
3. Item 3">
      <path
         id="path913"
         style="stroke-width:0.358568"
         d="m 5.5346363,9.1028041 h 0.5252453 v 8.1097889 q 0,0.574268 0.070033,0.742346 0.077036,0.161076 0.2451145,0.245115 0.1680786,0.08404 0.6653108,0.08404 h 0.6863206 v 0.588275 H 3.1115043 v -0.588275 h 0.7633566 q 0.4972323,0 0.6583075,-0.08404 0.1680786,-0.09104 0.2591211,-0.280131 0.091043,-0.196092 0.091043,-0.70733 V 10.545478 H 3.1115043 V 9.9431967 Q 4.5611815,9.7401018 5.5346363,9.1028041 Z" />
      <path
         id="path915"
         style="stroke-width:0.358568"
         d="m 11.914616,17.240606 q 0.371174,0 0.623292,0.259121 0.259121,0.252117 0.259121,0.616288 0,0.36417 -0.259121,0.623291 -0.259121,0.252117 -0.623292,0.252117 -0.357166,0 -0.616287,-0.252117 -0.259122,-0.259121 -0.259122,-0.623291 0,-0.364171 0.252118,-0.616288 0.259121,-0.259121 0.623291,-0.259121 z" />
      <path
         id="path917"
         style="stroke-width:0.358568"
         d="m 19.380105,9.1028041 h 3.739747 v 0.5952781 h -0.287134 q -0.40619,0 -0.588275,0.1120524 -0.182085,0.1120523 -0.266124,0.3221504 -0.08404,0.203095 -0.08404,0.798373 v 6.295941 q 0,0.476223 0.09104,0.679317 0.09104,0.196092 0.252118,0.287135 0.168078,0.09104 0.595278,0.09104 h 0.287134 v 0.588275 h -3.739747 v -0.588275 h 0.308144 q 0.413193,0 0.581272,-0.09104 0.175081,-0.09805 0.252117,-0.273128 0.07704,-0.182085 0.07704,-0.693324 v -6.44301 q 0,-0.539252 -0.07704,-0.721337 -0.07704,-0.189088 -0.252117,-0.2731273 -0.168079,-0.091043 -0.581272,-0.091043 h -0.308144 z" />
      <path
         id="path919"
         style="stroke-width:0.358568"
         d="m 26.047218,9.7330986 h 0.497232 v 2.3811124 h 2.079972 v 0.700327 H 26.54445 v 4.222973 q 0,0.539252 0.09104,0.77036 0.09804,0.231108 0.32215,0.378176 0.231108,0.147069 0.511239,0.147069 0.665311,0 1.470687,-0.595278 v 0.679317 q -0.917429,0.623291 -1.855867,0.623291 -0.532249,0 -0.966451,-0.238111 -0.4272,-0.238111 -0.588275,-0.560262 -0.154072,-0.32215 -0.154072,-1.120523 v -4.307012 h -1.225573 v -0.588275 q 0.588275,-0.133062 0.945442,-0.413193 0.36417,-0.280131 0.588275,-0.72834 0.224104,-0.448209 0.36417,-1.3516314 z" />
      <path
         id="path921"
         style="stroke-width:0.358568"
         d="m 35.662711,17.065524 0.448209,0.36417 q -0.511239,0.609285 -0.994464,0.966451 -0.476223,0.357167 -0.903422,0.497233 -0.4272,0.147068 -1.001468,0.147068 -1.029481,0 -1.750818,-0.420196 -0.826386,-0.483226 -1.267592,-1.260589 -0.441206,-0.777363 -0.441206,-1.834857 0,-1.106517 0.427199,-1.890883 0.4272,-0.784367 1.190556,-1.232576 0.77036,-0.455213 1.778831,-0.455213 0.74935,0 1.302609,0.238112 0.553258,0.231108 0.938438,0.70733 0.38518,0.469219 0.560262,1.078504 0.09805,0.357167 0.112052,0.924432 h -4.951313 q -0.02101,0.34316 -0.02101,0.511238 0,0.882413 0.308143,1.575737 0.308144,0.68632 0.81238,1.015474 0.511239,0.32215 1.15554,0.32215 0.546255,0 1.057494,-0.252117 0.511239,-0.259121 1.239579,-1.001468 z m -0.896419,-2.829322 q -0.105049,-0.644301 -0.301141,-0.952445 -0.189088,-0.308144 -0.546255,-0.490229 -0.350163,-0.182085 -0.791369,-0.182085 -0.441207,0 -0.826386,0.182085 -0.38518,0.182085 -0.644301,0.504236 -0.252118,0.32215 -0.441207,0.938438 z" />
      <path
         id="path923"
         style="stroke-width:0.358568"
         d="m 37.105383,13.122682 v -0.595278 q 0.525245,-0.04902 0.917428,-0.168079 0.392184,-0.126059 0.896419,-0.413193 h 0.518242 v 1.17655 q 0.798373,-0.630294 1.246583,-0.847396 0.68632,-0.329154 1.309611,-0.329154 0.4272,0 0.83339,0.161076 0.413193,0.154072 0.658307,0.38518 0.252118,0.231107 0.4272,0.630294 0.735343,-0.651304 1.358634,-0.910425 0.630295,-0.266125 1.274596,-0.266125 0.616288,0 1.085507,0.259121 0.476222,0.252118 0.68632,0.637298 0.217102,0.38518 0.217102,1.127527 v 3.249518 q 0,0.511239 0.02101,0.595278 0.03502,0.133062 0.147068,0.252118 0.119056,0.119055 0.266125,0.168078 0.147068,0.04902 0.546255,0.04902 h 0.224105 v 0.588275 H 46.216639 V 18.28409 q 0.602281,-0.007 0.777363,-0.08404 0.182085,-0.08404 0.266124,-0.266125 0.09104,-0.182085 0.09104,-0.714333 v -3.088443 q 0,-0.588275 -0.105049,-0.812379 -0.105049,-0.224105 -0.378177,-0.371174 -0.266124,-0.154072 -0.66531,-0.154072 -0.497233,0 -1.043488,0.266125 -0.72834,0.36417 -1.148536,0.819382 v 3.340561 q 0,0.483226 0.04202,0.637297 0.04902,0.147069 0.154072,0.252118 0.112052,0.09805 0.252118,0.140066 0.147069,0.03502 0.700327,0.03502 v 0.588275 H 41.70653 v -0.588275 h 0.196092 q 0.413193,0 0.581271,-0.09805 0.175082,-0.09805 0.273128,-0.30114 0.07003,-0.161076 0.07003,-0.665311 v -2.983394 q 0,-0.658307 -0.105049,-0.889415 -0.09805,-0.231108 -0.38518,-0.392184 -0.287134,-0.161075 -0.672314,-0.161075 -0.455213,0 -0.917429,0.224105 -0.686321,0.329154 -1.260589,0.861402 v 3.599682 q 0,0.32215 0.08404,0.476222 0.09104,0.147069 0.280131,0.238112 0.189089,0.09104 0.518242,0.09104 h 0.259121 v 0.588275 h -3.522645 v -0.588275 h 0.189088 q 0.483226,0 0.637298,-0.07704 0.224105,-0.105049 0.32215,-0.336157 0.05603,-0.126059 0.05603,-0.651304 v -4.096914 z" />
      <path
         id="path925"
         style="stroke-width:0.358568"
         d="m 59.487841,9.1028041 h 0.525246 v 8.1097889 q 0,0.574268 0.07003,0.742346 0.07704,0.161076 0.245115,0.245115 0.168078,0.08404 0.665311,0.08404 h 0.68632 v 0.588275 h -4.615156 v -0.588275 h 0.763357 q 0.497232,0 0.658308,-0.08404 0.168078,-0.09104 0.259121,-0.280131 0.09104,-0.196092 0.09104,-0.70733 V 10.545478 H 57.064709 V 9.9431967 q 1.449678,-0.2030949 2.423132,-0.8403926 z" />
      <path
         id="path927"
         style="stroke-width:0.358568"
         d="m 2.3411445,30.7149 -0.6793174,0.08404 q -0.056026,-0.497233 -0.056026,-0.81238 0,-0.826386 0.4482093,-1.56173 0.4482094,-0.735343 1.2465824,-1.148536 0.8053762,-0.413193 1.8418604,-0.413193 1.0014678,0 1.7578211,0.392183 0.7563533,0.38518 1.1555398,1.064497 0.4061897,0.672314 0.4061897,1.54072 0,0.735343 -0.2661243,1.365638 -0.259121,0.623291 -0.8403925,1.260589 -0.4342029,0.476222 -1.7578212,1.45668 -1.6667786,1.246582 -2.5561941,1.806844 h 3.6417012 q 0.644301,0 0.8403926,-0.119055 0.2731276,-0.154072 0.3711734,-0.714334 l 0.063029,-0.399187 H 8.553046 l -0.4762225,2.63323 H 7.6286144 L 7.5515785,36.800743 H 1.4307192 v -0.588275 l 1.1205234,-0.847396 q 1.2745954,-0.945441 1.8698735,-1.449677 1.1275267,-0.952445 1.6947917,-1.624759 0.5742683,-0.679317 0.7843664,-1.218569 0.2171014,-0.546255 0.2171014,-1.141533 0,-0.987462 -0.6372977,-1.617756 -0.6302944,-0.630295 -1.6457688,-0.630295 -0.7283402,0 -1.3026085,0.315148 -0.567265,0.315147 -0.8964187,0.882412 -0.3291538,0.567265 -0.3291538,1.225572 0,0.245115 0.035016,0.609285 z" />
      <path
         id="path929"
         style="stroke-width:0.358568"
         d="m 11.914616,35.168981 q 0.371174,0 0.623292,0.259121 0.259121,0.252117 0.259121,0.616288 0,0.36417 -0.259121,0.623291 -0.259121,0.252117 -0.623292,0.252117 -0.357166,0 -0.616287,-0.252117 -0.259122,-0.259121 -0.259122,-0.623291 0,-0.364171 0.252118,-0.616288 0.259121,-0.259121 0.623291,-0.259121 z" />
      <path
         id="path931"
         style="stroke-width:0.358568"
         d="m 19.380105,27.031179 h 3.739747 v 0.595278 h -0.287134 q -0.40619,0 -0.588275,0.112053 -0.182085,0.112052 -0.266124,0.32215 -0.08404,0.203095 -0.08404,0.798373 v 6.295941 q 0,0.476223 0.09104,0.679317 0.09104,0.196092 0.252118,0.287135 0.168078,0.09104 0.595278,0.09104 h 0.287134 v 0.588275 h -3.739747 v -0.588275 h 0.308144 q 0.413193,0 0.581272,-0.09104 0.175081,-0.09805 0.252117,-0.273128 0.07704,-0.182085 0.07704,-0.693324 v -6.44301 q 0,-0.539252 -0.07704,-0.721337 -0.07704,-0.189088 -0.252117,-0.273127 -0.168079,-0.09104 -0.581272,-0.09104 h -0.308144 z" />
      <path
         id="path933"
         style="stroke-width:0.358568"
         d="m 26.047218,27.661474 h 0.497232 v 2.381112 h 2.079972 v 0.700327 H 26.54445 v 4.222973 q 0,0.539252 0.09104,0.77036 0.09804,0.231108 0.32215,0.378176 0.231108,0.147069 0.511239,0.147069 0.665311,0 1.470687,-0.595278 v 0.679317 q -0.917429,0.623291 -1.855867,0.623291 -0.532249,0 -0.966451,-0.238111 -0.4272,-0.238111 -0.588275,-0.560262 -0.154072,-0.32215 -0.154072,-1.120523 v -4.307012 h -1.225573 v -0.588275 q 0.588275,-0.133062 0.945442,-0.413193 0.36417,-0.280131 0.588275,-0.72834 0.224104,-0.448209 0.36417,-1.351631 z" />
      <path
         id="path935"
         style="stroke-width:0.358568"
         d="m 35.662711,34.993899 0.448209,0.36417 q -0.511239,0.609285 -0.994464,0.966451 -0.476223,0.357167 -0.903422,0.497233 -0.4272,0.147068 -1.001468,0.147068 -1.029481,0 -1.750818,-0.420196 -0.826386,-0.483226 -1.267592,-1.260589 -0.441206,-0.777363 -0.441206,-1.834857 0,-1.106517 0.427199,-1.890883 0.4272,-0.784367 1.190556,-1.232576 0.77036,-0.455213 1.778831,-0.455213 0.74935,0 1.302609,0.238112 0.553258,0.231108 0.938438,0.70733 0.38518,0.469219 0.560262,1.078504 0.09805,0.357167 0.112052,0.924432 h -4.951313 q -0.02101,0.34316 -0.02101,0.511238 0,0.882413 0.308143,1.575737 0.308144,0.68632 0.81238,1.015474 0.511239,0.32215 1.15554,0.32215 0.546255,0 1.057494,-0.252117 0.511239,-0.259121 1.239579,-1.001468 z m -0.896419,-2.829322 q -0.105049,-0.644301 -0.301141,-0.952445 -0.189088,-0.308144 -0.546255,-0.490229 -0.350163,-0.182085 -0.791369,-0.182085 -0.441207,0 -0.826386,0.182085 -0.38518,0.182085 -0.644301,0.504236 -0.252118,0.32215 -0.441207,0.938438 z" />
      <path
         id="path937"
         style="stroke-width:0.358568"
         d="m 37.105383,31.051057 v -0.595278 q 0.525245,-0.04902 0.917428,-0.168079 0.392184,-0.126059 0.896419,-0.413193 h 0.518242 v 1.17655 q 0.798373,-0.630294 1.246583,-0.847396 0.68632,-0.329154 1.309611,-0.329154 0.4272,0 0.83339,0.161076 0.413193,0.154072 0.658307,0.38518 0.252118,0.231107 0.4272,0.630294 0.735343,-0.651304 1.358634,-0.910425 0.630295,-0.266125 1.274596,-0.266125 0.616288,0 1.085507,0.259121 0.476222,0.252118 0.68632,0.637298 0.217102,0.38518 0.217102,1.127527 v 3.249518 q 0,0.511239 0.02101,0.595278 0.03502,0.133062 0.147068,0.252118 0.119056,0.119055 0.266125,0.168078 0.147068,0.04902 0.546255,0.04902 h 0.224105 v 0.588275 h -3.522646 v -0.588275 q 0.602281,-0.007 0.777363,-0.08404 0.182085,-0.08404 0.266124,-0.266125 0.09104,-0.182085 0.09104,-0.714333 v -3.088443 q 0,-0.588275 -0.105049,-0.812379 -0.105049,-0.224105 -0.378177,-0.371174 -0.266124,-0.154072 -0.66531,-0.154072 -0.497233,0 -1.043488,0.266125 -0.72834,0.36417 -1.148536,0.819382 v 3.340561 q 0,0.483226 0.04202,0.637297 0.04902,0.147069 0.154072,0.252118 0.112052,0.09805 0.252118,0.140066 0.147069,0.03502 0.700327,0.03502 v 0.588275 H 41.70653 v -0.588275 h 0.196092 q 0.413193,0 0.581271,-0.09805 0.175082,-0.09805 0.273128,-0.30114 0.07003,-0.161076 0.07003,-0.665311 v -2.983394 q 0,-0.658307 -0.105049,-0.889415 -0.09805,-0.231108 -0.38518,-0.392184 -0.287134,-0.161075 -0.672314,-0.161075 -0.455213,0 -0.917429,0.224105 -0.686321,0.329154 -1.260589,0.861402 v 3.599682 q 0,0.32215 0.08404,0.476222 0.09104,0.147069 0.280131,0.238112 0.189089,0.09104 0.518242,0.09104 h 0.259121 v 0.588275 h -3.522645 v -0.588275 h 0.189088 q 0.483226,0 0.637298,-0.07704 0.224105,-0.105049 0.32215,-0.336157 0.05603,-0.126059 0.05603,-0.651304 v -4.096914 z" />
      <path
         id="path939"
         style="stroke-width:0.358568"
         d="m 56.29435,30.7149 -0.679318,0.08404 q -0.05603,-0.497232 -0.05603,-0.812379 0,-0.826386 0.448209,-1.56173 0.44821,-0.735343 1.246583,-1.148536 0.805376,-0.413193 1.84186,-0.413193 1.001468,0 1.757821,0.392183 0.756354,0.38518 1.15554,1.064497 0.40619,0.672314 0.40619,1.54072 0,0.735343 -0.266124,1.365638 -0.259122,0.623291 -0.840393,1.260589 -0.434203,0.476222 -1.757821,1.45668 -1.666779,1.246582 -2.556194,1.806844 h 3.641701 q 0.644301,0 0.840392,-0.119055 0.273128,-0.154072 0.371174,-0.714334 l 0.06303,-0.399187 h 0.595278 l -0.476222,2.63323 H 61.58182 l -0.07704,-0.350163 h -6.12086 v -0.588275 l 1.120524,-0.847396 q 1.274595,-0.945441 1.869873,-1.449677 1.127527,-0.952445 1.694792,-1.624759 0.574268,-0.679317 0.784366,-1.218569 0.217102,-0.546255 0.217102,-1.141533 0,-0.987462 -0.637298,-1.617756 -0.630294,-0.630295 -1.645769,-0.630295 -0.72834,0 -1.302608,0.315148 -0.567265,0.315147 -0.896419,0.882412 -0.329154,0.567265 -0.329154,1.225572 0,0.245115 0.03502,0.609285 z" />
      <path
         id="path941"
         style="stroke-width:0.358568"
         d="M 2.6142721,47.571774 1.941958,47.466725 Q 2.033,46.710372 2.3341412,46.21314 q 0.3991865,-0.672314 1.1275267,-1.043488 0.7283402,-0.378176 1.6737819,-0.378176 0.9314351,0 1.6387655,0.336157 0.7073304,0.329153 1.0644973,0.882412 0.3641701,0.546255 0.3641701,1.183553 0,0.560261 -0.2731276,1.001468 -0.2731276,0.441206 -0.8123795,0.791369 -0.3781766,0.245115 -0.9874613,0.4272 0.6513043,0.09104 1.0644973,0.30114 0.6723141,0.343161 1.057494,0.945442 0.3851799,0.602281 0.3851799,1.323618 0,1.15554 -1.0154743,2.037952 -1.0154744,0.875409 -2.6262268,0.875409 -1.5897427,0 -2.6752497,-0.847395 -0.9104253,-0.721337 -0.9104253,-1.449678 0,-0.287134 0.182085,-0.476222 0.1890883,-0.196092 0.4692192,-0.196092 0.308144,0 0.5252454,0.238112 0.1190556,0.133062 0.2731276,0.637297 0.2171014,0.707331 0.7353435,1.078504 0.5182421,0.371173 1.2886019,0.371173 0.6863206,0 1.2255725,-0.30114 0.5462552,-0.301141 0.8614024,-0.854399 0.3151472,-0.553259 0.3151472,-1.211566 0,-0.532249 -0.2311079,-0.952445 -0.2241047,-0.4272 -0.644301,-0.721337 Q 6.0878947,49.9809 5.5836592,49.889857 5.0864269,49.798815 4.6872404,49.798815 H 4.0359362 v -0.679318 h 0.413193 q 0.6162879,0 1.1765496,-0.140065 0.5602617,-0.147069 0.8964187,-0.595278 0.3361571,-0.448209 0.3361571,-1.015474 0,-0.490229 -0.2381113,-0.882413 Q 6.3890354,46.094084 5.9338227,45.862976 5.4786101,45.631868 4.883332,45.631868 q -0.5812715,0 -1.0715005,0.238111 -0.4832258,0.238112 -0.7773632,0.637298 -0.2941374,0.399187 -0.4201962,1.064497 z" />
      <path
         id="path943"
         style="stroke-width:0.358568"
         d="m 11.914616,53.097356 q 0.371174,0 0.623292,0.259121 0.259121,0.252117 0.259121,0.616288 0,0.36417 -0.259121,0.623291 -0.259121,0.252117 -0.623292,0.252117 -0.357166,0 -0.616287,-0.252117 -0.259122,-0.259121 -0.259122,-0.623291 0,-0.364171 0.252118,-0.616288 0.259121,-0.259121 0.623291,-0.259121 z" />
      <path
         id="path945"
         style="stroke-width:0.358568"
         d="m 19.380105,44.959554 h 3.739747 v 0.595278 h -0.287134 q -0.40619,0 -0.588275,0.112053 -0.182085,0.112052 -0.266124,0.32215 -0.08404,0.203095 -0.08404,0.798373 v 6.295941 q 0,0.476223 0.09104,0.679317 0.09104,0.196092 0.252118,0.287135 0.168078,0.09104 0.595278,0.09104 h 0.287134 v 0.588275 h -3.739747 v -0.588275 h 0.308144 q 0.413193,0 0.581272,-0.09104 0.175081,-0.09805 0.252117,-0.273128 0.07704,-0.182085 0.07704,-0.693324 v -6.44301 q 0,-0.539252 -0.07704,-0.721337 -0.07704,-0.189088 -0.252117,-0.273127 -0.168079,-0.09104 -0.581272,-0.09104 h -0.308144 z" />
      <path
         id="path947"
         style="stroke-width:0.358568"
         d="m 26.047218,45.589849 h 0.497232 v 2.381112 h 2.079972 v 0.700327 H 26.54445 v 4.222973 q 0,0.539252 0.09104,0.77036 0.09804,0.231108 0.32215,0.378176 0.231108,0.147069 0.511239,0.147069 0.665311,0 1.470687,-0.595278 v 0.679317 q -0.917429,0.623291 -1.855867,0.623291 -0.532249,0 -0.966451,-0.238111 -0.4272,-0.238111 -0.588275,-0.560262 -0.154072,-0.32215 -0.154072,-1.120523 v -4.307012 h -1.225573 v -0.588275 q 0.588275,-0.133062 0.945442,-0.413193 0.36417,-0.280131 0.588275,-0.72834 0.224104,-0.448209 0.36417,-1.351631 z" />
      <path
         id="path949"
         style="stroke-width:0.358568"
         d="m 35.662711,52.922274 0.448209,0.36417 q -0.511239,0.609285 -0.994464,0.966451 -0.476223,0.357167 -0.903422,0.497233 -0.4272,0.147068 -1.001468,0.147068 -1.029481,0 -1.750818,-0.420196 -0.826386,-0.483226 -1.267592,-1.260589 -0.441206,-0.777363 -0.441206,-1.834857 0,-1.106517 0.427199,-1.890883 0.4272,-0.784367 1.190556,-1.232576 0.77036,-0.455213 1.778831,-0.455213 0.74935,0 1.302609,0.238112 0.553258,0.231108 0.938438,0.70733 0.38518,0.469219 0.560262,1.078504 0.09805,0.357167 0.112052,0.924432 h -4.951313 q -0.02101,0.34316 -0.02101,0.511238 0,0.882413 0.308143,1.575737 0.308144,0.68632 0.81238,1.015474 0.511239,0.32215 1.15554,0.32215 0.546255,0 1.057494,-0.252117 0.511239,-0.259121 1.239579,-1.001468 z m -0.896419,-2.829322 q -0.105049,-0.644301 -0.301141,-0.952445 -0.189088,-0.308144 -0.546255,-0.490229 -0.350163,-0.182085 -0.791369,-0.182085 -0.441207,0 -0.826386,0.182085 -0.38518,0.182085 -0.644301,0.504236 -0.252118,0.32215 -0.441207,0.938438 z" />
      <path
         id="path951"
         style="stroke-width:0.358568"
         d="m 37.105383,48.979432 v -0.595278 q 0.525245,-0.04902 0.917428,-0.168079 0.392184,-0.126058 0.896419,-0.413193 h 0.518242 v 1.17655 q 0.798373,-0.630294 1.246583,-0.847396 0.68632,-0.329154 1.309611,-0.329154 0.4272,0 0.83339,0.161076 0.413193,0.154072 0.658307,0.38518 0.252118,0.231108 0.4272,0.630294 0.735343,-0.651304 1.358634,-0.910425 0.630295,-0.266125 1.274596,-0.266125 0.616288,0 1.085507,0.259121 0.476222,0.252118 0.68632,0.637298 0.217102,0.38518 0.217102,1.127527 v 3.249518 q 0,0.511239 0.02101,0.595278 0.03502,0.133062 0.147068,0.252118 0.119056,0.119055 0.266125,0.168078 0.147068,0.04902 0.546255,0.04902 h 0.224105 v 0.588275 H 46.216639 V 54.14084 q 0.602281,-0.007 0.777363,-0.08404 0.182085,-0.08404 0.266124,-0.266125 0.09104,-0.182085 0.09104,-0.714333 v -3.088443 q 0,-0.588275 -0.105049,-0.812379 -0.105049,-0.224105 -0.378177,-0.371174 -0.266124,-0.154072 -0.66531,-0.154072 -0.497233,0 -1.043488,0.266125 -0.72834,0.36417 -1.148536,0.819382 v 3.340561 q 0,0.483226 0.04202,0.637298 0.04902,0.147068 0.154072,0.252117 0.112052,0.09805 0.252118,0.140066 0.147069,0.03502 0.700327,0.03502 v 0.588275 H 41.70653 v -0.588275 h 0.196092 q 0.413193,0 0.581271,-0.09805 0.175082,-0.09805 0.273128,-0.30114 0.07003,-0.161076 0.07003,-0.665311 v -2.983394 q 0,-0.658307 -0.105049,-0.889415 -0.09805,-0.231108 -0.38518,-0.392184 -0.287134,-0.161075 -0.672314,-0.161075 -0.455213,0 -0.917429,0.224105 -0.686321,0.329154 -1.260589,0.861402 v 3.599682 q 0,0.32215 0.08404,0.476222 0.09104,0.147069 0.280131,0.238112 0.189089,0.09104 0.518242,0.09104 h 0.259121 v 0.588275 h -3.522645 v -0.588275 h 0.189088 q 0.483226,0 0.637298,-0.07704 0.224105,-0.105049 0.32215,-0.336157 0.05603,-0.126059 0.05603,-0.651304 v -4.096914 z" />
      <path
         id="path953"
         style="stroke-width:0.358568"
         d="m 56.567477,47.571774 -0.672314,-0.105049 q 0.09104,-0.756353 0.392183,-1.253585 0.399187,-0.672314 1.127527,-1.043488 0.72834,-0.378176 1.673782,-0.378176 0.931435,0 1.638765,0.336157 0.707331,0.329153 1.064498,0.882412 0.36417,0.546255 0.36417,1.183553 0,0.560261 -0.273128,1.001468 -0.273127,0.441206 -0.812379,0.791369 -0.378177,0.245115 -0.987462,0.4272 0.651305,0.09104 1.064498,0.30114 0.672314,0.343161 1.057494,0.945442 0.38518,0.602281 0.38518,1.323618 0,1.15554 -1.015475,2.037952 -1.015474,0.875409 -2.626227,0.875409 -1.589742,0 -2.675249,-0.847395 -0.910426,-0.721337 -0.910426,-1.449678 0,-0.287134 0.182086,-0.476222 0.189088,-0.196092 0.469219,-0.196092 0.308144,0 0.525245,0.238112 0.119056,0.133062 0.273128,0.637297 0.217101,0.707331 0.735343,1.078504 0.518242,0.371173 1.288602,0.371173 0.686321,0 1.225573,-0.30114 0.546255,-0.301141 0.861402,-0.854399 0.315147,-0.553259 0.315147,-1.211566 0,-0.532249 -0.231108,-0.952445 -0.224104,-0.4272 -0.644301,-0.721337 -0.32215,-0.231108 -0.826386,-0.322151 -0.497232,-0.09104 -0.896418,-0.09104 h -0.651305 v -0.679318 h 0.413193 q 0.616288,0 1.17655,-0.140065 0.560262,-0.147069 0.896419,-0.595278 0.336157,-0.448209 0.336157,-1.015474 0,-0.490229 -0.238112,-0.882413 -0.231108,-0.392183 -0.68632,-0.623291 -0.455213,-0.231108 -1.050491,-0.231108 -0.581271,0 -1.0715,0.238111 -0.483226,0.238112 -0.777364,0.637298 -0.294137,0.399187 -0.420196,1.064497 z" />
    </g>
  </g>
</svg>
