<?xml version="1.0" encoding="UTF-8" standalone="no"?>
<svg
   xmlns:dc="http://purl.org/dc/elements/1.1/"
   xmlns:cc="http://creativecommons.org/ns#"
   xmlns:rdf="http://www.w3.org/1999/02/22-rdf-syntax-ns#"
   xmlns:svg="http://www.w3.org/2000/svg"
   xmlns="http://www.w3.org/2000/svg"
   xmlns:sodipodi="http://sodipodi.sourceforge.net/DTD/sodipodi-0.dtd"
   xmlns:inkscape="http://www.inkscape.org/namespaces/inkscape"
   inkscape:version="1.0 (4035a4fb49, 2020-05-01)"
   sodipodi:docname="ol.svg"
   id="svg8"
   version="1.1"
   viewBox="0 0 64 64"
   height="64mm"
   width="64mm">
  <defs
     id="defs2" />
  <sodipodi:namedview
     inkscape:window-maximized="1"
     inkscape:window-y="-8"
     inkscape:window-x="-8"
     inkscape:window-height="987"
     inkscape:window-width="1680"
     showgrid="false"
     inkscape:document-rotation="0"
     inkscape:current-layer="layer1"
     inkscape:document-units="mm"
     inkscape:cy="70.124046"
     inkscape:cx="115.4815"
     inkscape:zoom="1.979899"
     inkscape:pageshadow="2"
     inkscape:pageopacity="0.0"
     borderopacity="1.0"
     bordercolor="#666666"
     pagecolor="#ffffff"
     id="base" />
  <metadata
     id="metadata5">
    <rdf:RDF>
      <cc:Work
         rdf:about="">
        <dc:format>image/svg+xml</dc:format>
        <dc:type
           rdf:resource="http://purl.org/dc/dcmitype/StillImage" />
        <dc:title></dc:title>
      </cc:Work>
    </rdf:RDF>
  </metadata>
  <g
     id="layer1"
     inkscape:groupmode="layer"
     inkscape:label="Layer 1">
    <g
       transform="matrix(1.5365565,0,0,1.5365565,-11.031771,0.27814723)"
       style="font-size:10.5833px;line-height:1.25;font-family:'Bookman Old Style';-inkscape-font-specification:'Bookman Old Style';letter-spacing:0px;word-spacing:0px;stroke-width:0.264583"
       id="text858"
       aria-label="- Item 1
- Item 2
- Item 3">
      <path
         id="path864"
         style="stroke-width:0.264583"
         d="M 8.3295905,8.0073349 H 11.399161 V 8.6481206 H 8.3295905 Z" />
      <path
         id="path866"
         style="stroke-width:0.264583"
         d="m 15.796811,3.7492104 h 2.759513 v 0.4392483 h -0.211873 q -0.299722,0 -0.43408,0.082682 -0.134359,0.082682 -0.19637,0.2377109 -0.06201,0.1498611 -0.06201,0.5891094 v 4.6456965 q 0,0.3513985 0.06718,0.5012595 0.06718,0.144694 0.186035,0.211873 0.124023,0.06718 0.439248,0.06718 h 0.211873 v 0.434081 H 15.796814 V 10.52397 h 0.227376 q 0.30489,0 0.428913,-0.06718 0.12919,-0.07235 0.186034,-0.201537 0.05684,-0.134359 0.05684,-0.5115955 V 4.9894408 q 0,-0.3979072 -0.05684,-0.5322655 Q 16.58229,4.3176494 16.4531,4.2556378 16.329077,4.1884587 16.024187,4.1884587 h -0.227376 z" />
      <path
         id="path868"
         style="stroke-width:0.264583"
         d="m 20.716391,4.2142968 h 0.366902 v 1.7569931 h 1.534785 v 0.5167627 h -1.534785 v 3.116079 q 0,0.3979074 0.06718,0.5684394 0.07235,0.170531 0.237711,0.279051 0.170532,0.108521 0.377237,0.108521 0.490924,0 1.085201,-0.439249 v 0.50126 q -0.676959,0.459919 -1.369421,0.459919 -0.392739,0 -0.713132,-0.175699 -0.315226,-0.1757 -0.434081,-0.413411 Q 20.2203,10.255253 20.2203,9.6661431 V 6.4880526 H 19.315965 V 6.053972 q 0.43408,-0.098185 0.697629,-0.30489 0.268717,-0.2067051 0.434081,-0.5374332 0.165364,-0.3307281 0.268716,-0.997352 z" />
      <path
         id="path870"
         style="stroke-width:0.264583"
         d="m 27.811543,9.6248021 0.330729,0.2687166 q -0.377237,0.4495833 -0.733803,0.7131323 -0.351399,0.263549 -0.666624,0.366902 -0.315226,0.10852 -0.738971,0.10852 -0.759641,0 -1.291907,-0.310058 -0.60978,-0.356566 -0.93534,-0.9301726 -0.325561,-0.5736066 -0.325561,-1.3539182 0,-0.8164851 0.315226,-1.3952593 0.315225,-0.5787742 0.878496,-0.9095023 0.568439,-0.3358957 1.312577,-0.3358957 0.552936,0 0.961179,0.1756993 0.408243,0.1705317 0.692462,0.5219303 0.284219,0.346231 0.41341,0.7958145 0.07235,0.263549 0.08268,0.6821268 h -3.653512 q -0.0155,0.2532137 -0.0155,0.3772367 0,0.651121 0.227376,1.162716 0.227375,0.5064275 0.599444,0.7493055 0.377237,0.237711 0.852659,0.237711 0.403075,0 0.780311,-0.186034 0.377237,-0.191202 0.91467,-0.7389709 z M 27.150087,7.5370808 Q 27.072573,7.0616592 26.927879,6.8342836 26.788353,6.606908 26.524804,6.4725497 26.266423,6.3381914 25.940863,6.3381914 q -0.325561,0 -0.60978,0.1343583 -0.28422,0.1343583 -0.475422,0.3720692 -0.186035,0.2377108 -0.325561,0.6924619 z" />
      <path
         id="path872"
         style="stroke-width:0.264583"
         d="M 28.876075,6.7154282 V 6.2761799 q 0.387572,-0.036173 0.676959,-0.124023 0.289387,-0.093017 0.661456,-0.30489 h 0.382404 v 0.8681613 q 0.58911,-0.4650864 0.919838,-0.6252828 0.506427,-0.2428785 0.966346,-0.2428785 0.315225,0 0.614948,0.1188554 0.30489,0.1136878 0.485757,0.2842195 0.186034,0.1705317 0.315225,0.4650864 0.542601,-0.4805893 1.002519,-0.6717915 0.465087,-0.1963698 0.940508,-0.1963698 0.454752,0 0.800983,0.1912022 0.351398,0.1860345 0.506427,0.470254 0.160196,0.2842195 0.160196,0.8319879 v 2.3977789 q 0,0.3772371 0.0155,0.4392481 0.02584,0.09819 0.108521,0.186035 0.08785,0.08785 0.196369,0.124023 0.10852,0.03617 0.403075,0.03617 h 0.165364 v 0.434081 h -2.599316 v -0.434081 q 0.444416,-0.0052 0.573607,-0.06201 0.134358,-0.06201 0.196369,-0.19637 0.06718,-0.134359 0.06718,-0.5270981 V 7.4595664 q 0,-0.4340806 -0.07751,-0.5994447 -0.07751,-0.165364 -0.279052,-0.2738842 -0.19637,-0.1136878 -0.490924,-0.1136878 -0.366902,0 -0.769977,0.1963699 -0.537433,0.2687165 -0.84749,0.6046123 v 2.464958 q 0,0.3565661 0.03101,0.4702541 0.03617,0.10852 0.113688,0.186034 0.08268,0.07235 0.186035,0.103353 0.10852,0.02584 0.516762,0.02584 v 0.434081 h -2.54764 v -0.434081 h 0.144694 q 0.30489,0 0.428913,-0.07235 0.129191,-0.07235 0.201537,-0.222208 0.05168,-0.118855 0.05168,-0.4909241 V 7.5370808 q 0,-0.4857569 -0.07751,-0.6562886 Q 32.948164,6.7102606 32.736292,6.5914051 32.524419,6.4725497 32.2402,6.4725497 q -0.335896,0 -0.67696,0.1653641 -0.506427,0.2428784 -0.930172,0.6356181 V 9.929692 q 0,0.237711 0.06201,0.351399 0.06718,0.10852 0.206705,0.175699 0.139526,0.06718 0.382405,0.06718 h 0.191202 v 0.43408 H 28.876075 V 10.523969 H 29.0156 q 0.356567,0 0.470255,-0.05684 0.165364,-0.07751 0.23771,-0.248046 0.04134,-0.09302 0.04134,-0.4805891 V 6.7154282 Z" />
      <path
         id="path874"
         style="stroke-width:0.264583"
         d="m 45.39181,3.7492104 h 0.387572 v 5.9841118 q 0,0.4237458 0.05168,0.5477688 0.05684,0.118855 0.180867,0.180867 0.124023,0.06201 0.490925,0.06201 h 0.506427 v 0.434081 h -3.405466 v -0.434081 h 0.563272 q 0.366901,0 0.485757,-0.06201 0.124023,-0.06718 0.191202,-0.206705 0.06718,-0.144694 0.06718,-0.5219308 V 4.8137415 h -1.30741 V 4.3693256 Q 44.67351,4.2194645 45.39181,3.7492104 Z" />
      <path
         id="path876"
         style="stroke-width:0.264583"
         d="m 8.3295905,21.236459 h 3.0695705 v 0.640786 H 8.3295905 Z" />
      <path
         id="path878"
         style="stroke-width:0.264583"
         d="m 15.796811,16.978335 h 2.759513 v 0.439248 h -0.211873 q -0.299722,0 -0.43408,0.08268 -0.134359,0.08268 -0.19637,0.237711 -0.06201,0.149861 -0.06201,0.58911 v 4.645696 q 0,0.351399 0.06718,0.50126 0.06718,0.144693 0.186035,0.211873 0.124023,0.06718 0.439248,0.06718 h 0.211873 v 0.43408 h -2.759513 v -0.43408 h 0.227376 q 0.30489,0 0.428913,-0.06718 0.12919,-0.07235 0.186034,-0.201538 0.05684,-0.134358 0.05684,-0.511595 v -4.754217 q 0,-0.397907 -0.05684,-0.532265 -0.05684,-0.139526 -0.186034,-0.201538 -0.124023,-0.06718 -0.428913,-0.06718 h -0.227376 z" />
      <path
         id="path880"
         style="stroke-width:0.264583"
         d="m 20.716391,17.443421 h 0.366902 v 1.756993 h 1.534785 v 0.516763 h -1.534785 v 3.116079 q 0,0.397907 0.06718,0.568439 0.07235,0.170532 0.237711,0.279052 0.170532,0.10852 0.377237,0.10852 0.490924,0 1.085201,-0.439248 v 0.50126 q -0.676959,0.459918 -1.369421,0.459918 -0.392739,0 -0.713132,-0.175699 -0.315226,-0.175699 -0.434081,-0.41341 Q 20.2203,23.484377 20.2203,22.895268 v -3.178091 h -0.904334 v -0.43408 q 0.43408,-0.09819 0.697629,-0.30489 0.268717,-0.206706 0.434081,-0.537434 0.165364,-0.330728 0.268716,-0.997352 z" />
      <path
         id="path882"
         style="stroke-width:0.264583"
         d="m 27.811543,22.853927 0.330729,0.268716 q -0.377237,0.449584 -0.733803,0.713133 -0.351399,0.263549 -0.666624,0.366901 -0.315226,0.10852 -0.738971,0.10852 -0.759641,0 -1.291907,-0.310057 -0.60978,-0.356566 -0.93534,-0.930173 -0.325561,-0.573607 -0.325561,-1.353918 0,-0.816485 0.315226,-1.39526 0.315225,-0.578774 0.878496,-0.909502 0.568439,-0.335896 1.312577,-0.335896 0.552936,0 0.961179,0.1757 0.408243,0.170531 0.692462,0.52193 0.284219,0.346231 0.41341,0.795815 0.07235,0.263549 0.08268,0.682126 h -3.653512 q -0.0155,0.253214 -0.0155,0.377237 0,0.651121 0.227376,1.162716 0.227375,0.506428 0.599444,0.749306 0.377237,0.237711 0.852659,0.237711 0.403075,0 0.780311,-0.186035 0.377237,-0.191202 0.91467,-0.73897 z m -0.661456,-2.087722 q -0.07751,-0.475421 -0.222208,-0.702797 -0.139526,-0.227375 -0.403075,-0.361734 -0.258381,-0.134358 -0.583941,-0.134358 -0.325561,0 -0.60978,0.134358 -0.28422,0.134359 -0.475422,0.372069 -0.186035,0.237711 -0.325561,0.692462 z" />
      <path
         id="path884"
         style="stroke-width:0.264583"
         d="m 28.876075,19.944553 v -0.439249 q 0.387572,-0.03617 0.676959,-0.124023 0.289387,-0.09302 0.661456,-0.30489 h 0.382404 v 0.868162 q 0.58911,-0.465087 0.919838,-0.625283 0.506427,-0.242879 0.966346,-0.242879 0.315225,0 0.614948,0.118856 0.30489,0.113688 0.485757,0.284219 0.186034,0.170532 0.315225,0.465087 0.542601,-0.48059 1.002519,-0.671792 0.465087,-0.19637 0.940508,-0.19637 0.454752,0 0.800983,0.191203 0.351398,0.186034 0.506427,0.470254 0.160196,0.284219 0.160196,0.831988 v 2.397778 q 0,0.377237 0.0155,0.439249 0.02584,0.09818 0.108521,0.186034 0.08785,0.08785 0.196369,0.124023 0.10852,0.03617 0.403075,0.03617 h 0.165364 v 0.43408 h -2.599316 v -0.43408 q 0.444416,-0.0052 0.573607,-0.06201 0.134358,-0.06201 0.196369,-0.19637 0.06718,-0.134358 0.06718,-0.527098 v -2.278923 q 0,-0.434081 -0.07751,-0.599445 -0.07751,-0.165364 -0.279052,-0.273884 -0.19637,-0.113688 -0.490924,-0.113688 -0.366902,0 -0.769977,0.19637 -0.537433,0.268717 -0.84749,0.604612 v 2.464958 q 0,0.356567 0.03101,0.470254 0.03617,0.108521 0.113688,0.186035 0.08268,0.07235 0.186035,0.103353 0.10852,0.02584 0.516762,0.02584 v 0.43408 h -2.54764 v -0.43408 h 0.144694 q 0.30489,0 0.428913,-0.07235 0.129191,-0.07235 0.201537,-0.222208 0.05168,-0.118855 0.05168,-0.490925 v -2.201409 q 0,-0.485757 -0.07751,-0.656288 -0.07235,-0.170532 -0.284219,-0.289387 -0.211873,-0.118856 -0.496092,-0.118856 -0.335896,0 -0.67696,0.165364 -0.506427,0.242879 -0.930172,0.635618 v 2.656161 q 0,0.23771 0.06201,0.351398 0.06718,0.10852 0.206705,0.1757 0.139526,0.06718 0.382405,0.06718 h 0.191202 v 0.43408 h -2.599316 v -0.43408 H 29.0156 q 0.356567,0 0.470255,-0.05684 0.165364,-0.07751 0.23771,-0.248046 0.04134,-0.09302 0.04134,-0.48059 v -3.023061 z" />
      <path
         id="path886"
         style="stroke-width:0.264583"
         d="m 43.035372,19.696507 -0.501259,0.06201 q -0.04134,-0.366901 -0.04134,-0.599445 0,-0.609779 0.330728,-1.15238 0.330728,-0.542601 0.919837,-0.847491 0.594277,-0.30489 1.359086,-0.30489 0.738971,0 1.297074,0.289387 0.558104,0.284219 0.852659,0.785479 0.299722,0.496092 0.299722,1.136878 0,0.542601 -0.19637,1.007687 -0.191202,0.459919 -0.620115,0.930173 -0.320393,0.351399 -1.297074,1.074867 -1.229895,0.919837 -1.886184,1.333247 h 2.687166 q 0.475422,0 0.620115,-0.08785 0.201538,-0.113688 0.273884,-0.527098 l 0.04651,-0.294555 h 0.439248 l -0.351398,1.943028 h -0.330728 l -0.05684,-0.258382 h -4.516506 v -0.43408 l 0.82682,-0.625283 q 0.940508,-0.69763 1.379757,-1.069699 0.831987,-0.702797 1.250565,-1.198889 0.423746,-0.50126 0.578774,-0.899167 0.160197,-0.403075 0.160197,-0.842324 0,-0.728635 -0.470254,-1.193721 -0.465087,-0.465087 -1.214392,-0.465087 -0.537434,0 -0.961179,0.232543 -0.418578,0.232544 -0.661456,0.651121 -0.242879,0.418578 -0.242879,0.904335 0,0.180867 0.02584,0.449584 z" />
      <path
         id="path888"
         style="stroke-width:0.264583"
         d="M 8.3295905,34.465584 H 11.399161 V 35.10637 H 8.3295905 Z" />
      <path
         id="path890"
         style="stroke-width:0.264583"
         d="m 15.796811,30.20746 h 2.759513 v 0.439248 h -0.211873 q -0.299722,0 -0.43408,0.08268 -0.134359,0.08268 -0.19637,0.237711 -0.06201,0.149861 -0.06201,0.589109 v 4.645697 q 0,0.351398 0.06718,0.501259 0.06718,0.144694 0.186035,0.211873 0.124023,0.06718 0.439248,0.06718 h 0.211873 v 0.434081 h -2.759513 v -0.434081 h 0.227376 q 0.30489,0 0.428913,-0.06718 0.12919,-0.07235 0.186034,-0.201537 0.05684,-0.134359 0.05684,-0.511595 V 31.44769 q 0,-0.397907 -0.05684,-0.532266 -0.05684,-0.139526 -0.186034,-0.201537 -0.124023,-0.06718 -0.428913,-0.06718 h -0.227376 z" />
      <path
         id="path892"
         style="stroke-width:0.264583"
         d="m 20.716391,30.672546 h 0.366902 v 1.756993 h 1.534785 v 0.516763 h -1.534785 v 3.116079 q 0,0.397907 0.06718,0.568439 0.07235,0.170531 0.237711,0.279051 0.170532,0.108521 0.377237,0.108521 0.490924,0 1.085201,-0.439249 v 0.50126 q -0.676959,0.459919 -1.369421,0.459919 -0.392739,0 -0.713132,-0.175699 -0.315226,-0.1757 -0.434081,-0.413411 -0.113688,-0.23771 -0.113688,-0.82682 v -3.17809 h -0.904334 v -0.434081 q 0.43408,-0.09818 0.697629,-0.30489 0.268717,-0.206705 0.434081,-0.537433 0.165364,-0.330728 0.268716,-0.997352 z" />
      <path
         id="path894"
         style="stroke-width:0.264583"
         d="m 27.811543,36.083051 0.330729,0.268717 q -0.377237,0.449583 -0.733803,0.713132 -0.351399,0.263549 -0.666624,0.366902 -0.315226,0.10852 -0.738971,0.10852 -0.759641,0 -1.291907,-0.310058 -0.60978,-0.356566 -0.93534,-0.930173 -0.325561,-0.573606 -0.325561,-1.353918 0,-0.816485 0.315226,-1.395259 0.315225,-0.578774 0.878496,-0.909502 0.568439,-0.335896 1.312577,-0.335896 0.552936,0 0.961179,0.175699 0.408243,0.170532 0.692462,0.521931 0.284219,0.346231 0.41341,0.795814 0.07235,0.263549 0.08268,0.682127 h -3.653512 q -0.0155,0.253214 -0.0155,0.377237 0,0.651121 0.227376,1.162716 0.227375,0.506427 0.599444,0.749306 0.377237,0.23771 0.852659,0.23771 0.403075,0 0.780311,-0.186034 0.377237,-0.191202 0.91467,-0.738971 z M 27.150087,33.99533 q -0.07751,-0.475422 -0.222208,-0.702797 -0.139526,-0.227376 -0.403075,-0.361734 -0.258381,-0.134358 -0.583941,-0.134358 -0.325561,0 -0.60978,0.134358 -0.28422,0.134358 -0.475422,0.372069 -0.186035,0.237711 -0.325561,0.692462 z" />
      <path
         id="path896"
         style="stroke-width:0.264583"
         d="m 28.876075,33.173677 v -0.439248 q 0.387572,-0.03617 0.676959,-0.124023 0.289387,-0.09302 0.661456,-0.30489 h 0.382404 v 0.868161 q 0.58911,-0.465086 0.919838,-0.625283 0.506427,-0.242878 0.966346,-0.242878 0.315225,0 0.614948,0.118855 0.30489,0.113688 0.485757,0.28422 0.186034,0.170532 0.315225,0.465086 0.542601,-0.480589 1.002519,-0.671791 0.465087,-0.19637 0.940508,-0.19637 0.454752,0 0.800983,0.191202 0.351398,0.186035 0.506427,0.470254 0.160196,0.28422 0.160196,0.831988 v 2.397779 q 0,0.377237 0.0155,0.439248 0.02584,0.09819 0.108521,0.186035 0.08785,0.08785 0.196369,0.124023 0.10852,0.03617 0.403075,0.03617 h 0.165364 v 0.434081 h -2.599316 v -0.434081 q 0.444416,-0.0052 0.573607,-0.06201 0.134358,-0.06201 0.196369,-0.19637 0.06718,-0.134358 0.06718,-0.527098 v -2.278923 q 0,-0.434081 -0.07751,-0.599445 -0.07751,-0.165364 -0.279052,-0.273884 -0.19637,-0.113688 -0.490924,-0.113688 -0.366902,0 -0.769977,0.19637 -0.537433,0.268716 -0.84749,0.604612 v 2.464958 q 0,0.356566 0.03101,0.470254 0.03617,0.10852 0.113688,0.186035 0.08268,0.07235 0.186035,0.103352 0.10852,0.02584 0.516762,0.02584 v 0.434081 h -2.54764 v -0.434081 h 0.144694 q 0.30489,0 0.428913,-0.07235 0.129191,-0.07235 0.201537,-0.222208 0.05168,-0.118855 0.05168,-0.490924 V 33.99533 q 0,-0.485757 -0.07751,-0.656289 -0.07235,-0.170531 -0.284219,-0.289387 -0.211873,-0.118855 -0.496092,-0.118855 -0.335896,0 -0.67696,0.165364 -0.506427,0.242878 -0.930172,0.635618 v 2.65616 q 0,0.237711 0.06201,0.351399 0.06718,0.10852 0.206705,0.175699 0.139526,0.06718 0.382405,0.06718 h 0.191202 V 37.4163 h -2.59933 V 36.982218 H 29.0156 q 0.356567,0 0.470255,-0.05684 0.165364,-0.07751 0.23771,-0.248046 0.04134,-0.09302 0.04134,-0.480589 v -3.023062 z" />
      <path
         id="path898"
         style="stroke-width:0.264583"
         d="m 43.23691,32.134984 -0.496092,-0.07751 q 0.06718,-0.558104 0.289387,-0.925005 0.294555,-0.496092 0.831988,-0.769977 0.537433,-0.279052 1.235062,-0.279052 0.687295,0 1.209225,0.248047 0.52193,0.242878 0.785479,0.651121 0.268717,0.403074 0.268717,0.873328 0,0.413411 -0.201537,0.738971 -0.201538,0.325561 -0.599445,0.583942 -0.279052,0.180867 -0.728636,0.315225 0.48059,0.06718 0.78548,0.222208 0.496092,0.253214 0.780311,0.69763 0.28422,0.444416 0.28422,0.976681 0,0.852659 -0.749306,1.50378 -0.749306,0.645953 -1.93786,0.645953 -1.173051,0 -1.974033,-0.625283 -0.671792,-0.532265 -0.671792,-1.069699 0,-0.211872 0.134358,-0.351398 0.139526,-0.144694 0.346231,-0.144694 0.227376,0 0.387572,0.175699 0.08785,0.09819 0.201538,0.470255 0.160196,0.52193 0.542601,0.795814 0.382404,0.273884 0.950843,0.273884 0.506427,0 0.904335,-0.222208 0.403075,-0.222208 0.635618,-0.63045 0.232543,-0.408243 0.232543,-0.894 0,-0.392739 -0.170532,-0.702797 -0.165364,-0.315225 -0.475421,-0.532265 -0.237711,-0.170532 -0.60978,-0.237711 -0.366902,-0.06718 -0.661457,-0.06718 h -0.480589 v -0.50126 h 0.30489 q 0.454751,0 0.868161,-0.103353 0.413411,-0.10852 0.661457,-0.439248 0.248046,-0.330728 0.248046,-0.749306 0,-0.361734 -0.1757,-0.651121 -0.170531,-0.289387 -0.506427,-0.459919 -0.335896,-0.170531 -0.775144,-0.170531 -0.428913,0 -0.790647,0.175699 -0.356566,0.175699 -0.573607,0.470254 -0.21704,0.294555 -0.310057,0.785479 z" />
    </g>
  </g>
</svg>
